<svg height="512" viewBox="0 0 48 48" width="512" xmlns="http://www.w3.org/2000/svg" xmlns:xlink="http://www.w3.org/1999/xlink"><linearGradient id="linear-gradient" gradientUnits="userSpaceOnUse" x1="24" x2="24" y1="1.34" y2="47.255"><stop offset="0" stop-color="#ffedff"/><stop offset="1" stop-color="#ffc3f9"/></linearGradient><linearGradient id="linear-gradient-2" gradientUnits="userSpaceOnUse" x1="32" x2="32" y1="11.894" y2="35.47"><stop offset="0" stop-color="#b444ff"/><stop offset="1" stop-color="#f582ff"/></linearGradient><linearGradient id="linear-gradient-3" x1="23" x2="23" xlink:href="#linear-gradient-2" y1="11.894" y2="35.47"/><g id="Layer_2" data-name="Layer 2"><path d="m46.4062 10.7172a9.6831 9.6831 0 0 0 -9.124-9.124 235.4011 235.4011 0 0 0 -26.5639 0 9.684 9.684 0 0 0 -9.1245 9.124 235.4117 235.4117 0 0 0 0 26.5645 9.6839 9.6839 0 0 0 9.1245 9.124 234.7215 234.7215 0 0 0 26.5639 0 9.683 9.683 0 0 0 9.124-9.124 235.4117 235.4117 0 0 0 0-26.5645z" fill="url(#linear-gradient)"/></g><g id="Layer_3" data-name="Layer 3"><path d="m36.4733 24.0181a6.6916 6.6916 0 0 0 -11.2233 4.9819 6.83 6.83 0 0 0 6.75 6.75 6.7 6.7 0 0 0 4.4733-11.7319zm-.9433 3.5119-4 4a.7562.7562 0 0 1 -1.0606 0l-2.2236-2.2237a.75.75 0 0 1 1.0605-1.0605l1.6937 1.6942 3.47-3.47a.75.75 0 0 1 1.06 1.06z" fill="url(#linear-gradient-2)"/><g fill="url(#linear-gradient-3)"><path d="m12 33.75h13.27a8.096 8.096 0 0 1 -1.52-4.75 8.2581 8.2581 0 0 1 8.25-8.25 8.1412 8.1412 0 0 1 4.75 1.52v-3.52h-27.5v12.25a2.7484 2.7484 0 0 0 2.75 2.75zm2-8.5h5a.75.75 0 0 1 0 1.5h-5a.75.75 0 0 1 0-1.5zm0 3h5a.75.75 0 0 1 0 1.5h-5a.75.75 0 0 1 0-1.5z"/><path d="m36.75 15a2.7528 2.7528 0 0 0 -2.75-2.75h-22a2.7528 2.7528 0 0 0 -2.75 2.75v2.25h27.5z"/></g></g></svg>